<svg xmlns="http://www.w3.org/2000/svg" width="128" height="128" viewBox="0 0 128 128">
  <rect width="128" height="128" rx="28" fill="#18252d"/>
  <path d="M19 54c0-10 8-18 18-18h54c10 0 18 8 18 18v21c0 10-8 18-18 18H37c-10 0-18-8-18-18V54Z" fill="#f4f7f8"/>
  <path d="M24 55c0-8 6-14 14-14h52c8 0 14 6 14 14v19c0 8-6 14-14 14H38c-8 0-14-6-14-14V55Z" fill="#0a7d85"/>
  <circle cx="47" cy="65" r="15" fill="#14242b"/>
  <circle cx="81" cy="65" r="15" fill="#14242b"/>
  <circle cx="47" cy="65" r="8" fill="#5ee0d4"/>
  <circle cx="81" cy="65" r="8" fill="#5ee0d4"/>
  <path d="M62 65h4" stroke="#f4f7f8" stroke-width="5" stroke-linecap="round"/>
  <path d="M37 98h54" stroke="#5ee0d4" stroke-width="6" stroke-linecap="round"/>
</svg>